# xmcd CD database file
#
# Track frame offsets:
#	150
#	23082
#	44955
#
# Disc length: 904 seconds
#
# Revision: 0
# Processed by: cddbd v1.5.1PL0 Copyright (c) Steve Scherf et al.
# Submitted via: CDex 1.51
#
DISCID=23038603
DTITLE=W's - Dance Revolution
DYEAR=1996
DGENRE=Japanese Pop
TTITLE0=Dance Revolution
TTITLE1=Lasting Blue
TTITLE2=Dance Revolution(ORIGINAL Karaoke)
EXTD=YEAR: 1996
EXTT0=
EXTT1=
EXTT2=
PLAYORDER=
